<?xml version="1.0" standalone="no"?>
<!DOCTYPE svg PUBLIC "-//W3C//DTD SVG 20010904//EN"
 "http://www.w3.org/TR/2001/REC-SVG-20010904/DTD/svg10.dtd">
<svg version="1.0" xmlns="http://www.w3.org/2000/svg"
 width="1080.000000pt" height="1080.000000pt" viewBox="0 0 1080.000000 1080.000000"
 preserveAspectRatio="xMidYMid meet">

<g transform="translate(0.000000,1080.000000) scale(0.100000,-0.100000)"
fill="#000000" stroke="none">
<path d="M6345 9438 c-28 -16 -35 -28 -35 -63 0 -41 16 -55 65 -55 49 0 65 13
65 55 0 50 -55 86 -95 63z"/>
<path d="M5276 9188 c-3 -46 -10 -186 -16 -313 -6 -126 -14 -254 -17 -283 l-5
-53 43 3 44 3 8 60 c4 33 13 139 21 236 14 185 18 199 75 263 36 39 123 76
180 76 56 -1 140 -28 167 -55 12 -11 31 -39 44 -62 23 -41 23 -46 17 -245 -4
-112 -10 -227 -13 -256 l-7 -53 49 3 49 3 7 100 c4 55 8 177 10 270 l3 170
-31 55 c-35 62 -96 114 -152 130 -20 5 -77 10 -127 10 -105 0 -158 -19 -217
-78 -39 -37 -42 -36 -38 25 3 58 -7 73 -50 73 l-38 0 -6 -82z"/>
<path d="M3772 9217 c-42 -45 -17 -107 42 -107 47 0 66 17 66 59 0 67 -64 95
-108 48z"/>
<path d="M4857 9233 c-15 -4 -18 -11 -12 -31 12 -47 17 -102 10 -102 -4 0 -19
9 -34 19 -56 40 -113 56 -198 55 -45 0 -88 -5 -95 -10 -7 -6 -32 -16 -55 -23
-60 -17 -153 -106 -187 -178 -25 -51 -27 -65 -23 -147 2 -50 10 -107 18 -126
42 -103 123 -179 217 -206 76 -22 210 -15 276 16 56 25 131 90 152 132 8 15
18 28 23 28 12 0 31 -103 31 -164 0 -138 -64 -200 -253 -245 -26 -6 -60 -11
-75 -11 -25 1 -137 29 -174 44 -12 6 -21 0 -32 -23 -9 -16 -16 -34 -16 -39 0
-5 25 -19 56 -31 116 -44 339 -22 445 45 81 51 114 96 135 185 15 66 8 157
-21 259 -7 25 -16 68 -19 95 -4 28 -12 64 -17 81 -5 18 -14 54 -19 80 -7 44
-36 174 -57 264 -9 36 -31 45 -76 33z m-131 -146 c81 -19 136 -76 181 -186 28
-69 28 -82 2 -151 -26 -69 -59 -113 -110 -147 -47 -31 -183 -65 -213 -53 -12
4 -40 13 -62 19 -52 14 -115 73 -149 140 -19 39 -25 65 -25 117 0 85 26 141
97 203 41 37 64 48 110 57 76 15 108 16 169 1z"/>
<path d="M6276 9131 c-16 -17 -66 -195 -66 -236 0 -10 -6 -37 -14 -60 -15 -44
-31 -106 -52 -200 -7 -33 -19 -83 -25 -111 -16 -67 -9 -84 35 -84 41 0 42 1
55 71 6 30 24 106 40 169 17 63 31 124 31 136 0 11 4 24 9 30 4 5 13 34 20 64
6 30 20 92 30 138 18 80 18 83 1 92 -27 15 -45 12 -64 -9z"/>
<path d="M6680 9028 c-11 -12 -22 -31 -26 -42 -3 -12 -28 -67 -55 -124 -27
-57 -49 -107 -49 -112 0 -5 -11 -30 -24 -57 -62 -123 -140 -302 -135 -306 2
-1 20 -10 40 -19 l36 -16 21 41 c30 59 101 215 120 262 24 60 75 142 103 163
31 24 114 52 155 52 49 0 146 -42 192 -84 32 -28 62 -92 62 -131 0 -33 -27
-115 -59 -182 -11 -23 -39 -83 -62 -135 -22 -51 -50 -113 -62 -136 -21 -43
-21 -44 -2 -58 10 -8 31 -14 46 -14 23 0 30 8 54 63 43 96 84 186 116 255 17
35 33 77 36 93 3 16 10 32 14 35 15 9 10 129 -7 170 -36 86 -93 136 -200 174
-68 23 -179 27 -209 7 -27 -18 -65 -27 -65 -16 0 6 7 24 16 40 21 41 15 80
-13 90 -17 6 -28 3 -43 -13z"/>
<path d="M3903 8949 l-33 -21 17 -36 c8 -21 21 -50 28 -67 6 -16 22 -52 34
-80 13 -27 29 -66 36 -86 12 -32 35 -87 80 -184 7 -16 19 -47 25 -67 6 -21 16
-40 21 -43 5 -4 9 -15 9 -25 0 -10 10 -31 23 -46 23 -26 24 -26 55 -10 18 9
32 20 32 25 0 10 -21 63 -55 136 -13 28 -35 81 -50 119 -15 38 -31 77 -35 85
-4 9 -25 57 -45 106 -20 50 -43 101 -50 115 -7 14 -18 42 -24 63 -14 42 -23
45 -68 16z"/>
<path d="M3567 8770 c-69 -13 -168 -64 -229 -119 -63 -56 -92 -111 -92 -176 0
-56 31 -115 81 -155 42 -33 160 -24 263 19 109 45 187 58 227 38 65 -34 64
-131 -1 -190 -71 -65 -168 -107 -266 -116 l-65 -6 -3 -44 -3 -43 48 5 c89 10
138 23 198 53 223 112 294 270 175 395 l-39 41 -88 -4 c-69 -4 -104 -12 -163
-37 -86 -36 -193 -51 -229 -31 -13 6 -29 27 -37 46 -28 67 11 134 111 196 39
24 168 68 199 68 16 0 21 25 10 54 -7 17 -33 19 -97 6z"/>
<path d="M7462 8478 c-126 -50 -232 -202 -232 -333 0 -46 28 -137 56 -182 25
-40 108 -120 146 -139 53 -28 146 -45 200 -38 l50 7 -15 -29 c-30 -56 -118
-131 -182 -153 l-60 -22 -59 21 c-126 43 -235 161 -280 303 -5 17 -31 22 -60
11 -49 -19 16 -157 124 -266 149 -150 294 -184 436 -101 53 30 219 213 344
378 14 19 58 71 98 118 40 47 72 94 72 105 0 12 -11 29 -25 38 -24 16 -26 15
-69 -32 l-45 -49 -1 35 c0 45 -28 123 -62 176 -92 144 -285 211 -436 152z
m256 -99 c35 -17 78 -50 100 -74 59 -67 101 -200 73 -230 -5 -6 -14 -26 -20
-47 -16 -48 -83 -123 -135 -151 -60 -31 -174 -31 -236 1 -102 53 -180 166
-180 260 0 28 10 67 24 98 74 158 227 217 374 143z"/>
<path d="M2915 8294 c-87 -22 -206 -119 -247 -203 -29 -59 -37 -202 -15 -252
8 -19 18 -44 23 -56 5 -12 35 -51 67 -87 120 -135 279 -168 434 -89 114 57
223 208 223 308 l0 45 -39 0 -38 0 -7 -55 c-7 -64 -46 -128 -109 -179 -74 -59
-104 -70 -192 -70 -69 0 -86 4 -122 27 -23 14 -45 32 -49 38 -4 8 15 33 52 67
146 136 374 362 374 370 0 19 -84 85 -139 109 -55 25 -167 39 -216 27z m182
-101 c17 -8 39 -23 49 -35 18 -19 16 -22 -146 -179 -91 -87 -177 -168 -191
-179 l-27 -20 -28 41 c-25 37 -28 49 -29 127 0 74 3 93 23 124 36 59 118 126
160 133 20 4 44 8 52 9 28 6 105 -6 137 -21z"/>
<path d="M2043 7857 c-13 -18 -23 -36 -23 -40 0 -4 37 -31 83 -59 109 -69 114
-72 167 -104 25 -15 60 -39 79 -53 29 -22 31 -26 15 -32 -11 -4 -30 -8 -43 -8
-36 -1 -109 -41 -151 -83 -20 -20 -52 -65 -71 -100 -32 -60 -34 -68 -34 -163
0 -92 2 -104 30 -153 16 -30 55 -77 86 -106 141 -130 337 -143 486 -30 39 30
88 102 114 166 23 59 26 164 5 194 -9 12 -11 26 -6 33 6 11 19 7 58 -15 50
-28 51 -28 71 -10 12 11 21 27 21 37 0 17 -44 59 -61 59 -5 0 -28 13 -51 29
-24 16 -68 44 -98 63 -46 29 -410 256 -494 308 -13 8 -49 30 -80 48 -30 18
-58 37 -61 43 -10 15 -19 10 -42 -24z m519 -389 c143 -76 202 -220 145 -350
-31 -69 -66 -110 -125 -145 -43 -25 -55 -28 -139 -28 -72 1 -96 5 -111 18 -10
9 -24 17 -31 17 -25 0 -109 92 -131 142 -18 43 -22 65 -18 128 5 75 20 112 75
176 76 89 215 106 335 42z"/>
<path d="M8474 7535 c-4 -14 -5 -28 -3 -30 2 -2 29 -23 60 -47 105 -81 152
-157 153 -248 1 -44 -4 -64 -23 -92 -23 -34 -68 -70 -102 -83 -17 -6 -49 37
-105 141 -43 80 -72 119 -117 161 -53 49 -77 57 -156 51 -152 -11 -218 -171
-137 -331 48 -94 122 -158 203 -175 l38 -8 -42 -27 c-24 -15 -43 -33 -43 -40
0 -19 29 -57 45 -57 7 0 46 19 85 43 40 23 95 55 124 71 28 15 70 41 94 57 24
16 46 29 49 29 23 0 116 78 142 118 28 44 31 57 31 126 0 63 -5 86 -26 129
-42 83 -93 147 -157 193 -69 51 -103 57 -113 19z m-167 -267 c41 -39 177 -264
168 -278 -12 -19 -110 -70 -136 -70 -77 0 -169 59 -215 138 -36 62 -41 167 -9
202 52 59 136 63 192 8z"/>
<path d="M8815 6815 c-5 -2 -22 -6 -37 -9 -48 -11 -95 -62 -113 -121 -14 -49
-14 -65 1 -177 9 -68 14 -142 11 -166 -9 -83 -84 -124 -151 -83 -43 27 -77 84
-106 181 -20 65 -22 83 -13 140 5 36 13 73 17 83 7 15 2 17 -37 17 l-46 0 -7
-56 c-24 -194 57 -398 181 -455 55 -26 92 -24 156 9 50 25 55 31 73 85 18 53
19 66 8 155 -7 53 -12 129 -12 169 0 62 3 75 26 102 23 27 32 31 77 31 47 0
53 -3 91 -44 53 -57 76 -133 76 -243 0 -79 1 -83 24 -89 14 -3 30 -3 35 1 7 4
11 48 11 111 0 112 -16 171 -73 260 -37 59 -145 115 -192 99z"/>
<path d="M1724 6493 c-3 -10 -9 -25 -14 -34 -5 -9 -12 -34 -15 -55 -10 -60
-26 -94 -44 -94 -9 0 -40 7 -70 15 -30 8 -58 12 -62 9 -9 -5 -33 -74 -27 -79
2 -2 37 -12 78 -23 74 -19 91 -32 72 -55 -5 -7 -13 -31 -17 -53 -6 -38 -5 -42
18 -46 38 -7 54 7 67 62 12 50 13 51 44 45 52 -10 198 -46 250 -61 26 -8 58
-14 71 -14 12 0 39 -7 58 -15 57 -23 140 -20 185 9 20 13 44 32 53 42 27 32
49 107 49 164 -1 66 -17 94 -53 85 -23 -6 -25 -11 -29 -87 -5 -75 -7 -83 -34
-105 -38 -30 -78 -37 -134 -23 -25 6 -72 17 -105 25 -89 19 -309 76 -314 81
-3 2 6 47 18 99 13 52 21 101 18 110 -9 21 -56 19 -63 -2z"/>
<path d="M1591 5908 c0 -29 8 -72 18 -96 21 -53 67 -112 86 -112 8 0 15 -7 15
-15 0 -16 -49 -20 -85 -6 -37 15 -55 2 -55 -39 l0 -38 58 -5 c31 -3 116 -10
187 -16 72 -6 166 -16 210 -21 44 -5 121 -12 172 -16 l92 -7 7 37 c3 21 2 42
-3 47 -5 5 -110 18 -233 30 -155 14 -230 25 -241 35 -8 8 -19 14 -23 14 -4 0
-21 10 -37 23 -44 31 -71 91 -78 167 l-6 65 -42 3 -43 3 1 -53z"/>
<path d="M8259 5798 c-27 -54 -30 -168 -4 -218 26 -49 83 -100 145 -128 30
-13 78 -34 105 -47 28 -12 79 -35 115 -50 36 -15 88 -38 115 -50 28 -13 95
-42 150 -65 55 -24 127 -55 160 -70 183 -83 198 -86 203 -32 3 29 0 34 -35 48
-21 8 -51 21 -68 29 -55 26 -139 62 -250 109 -217 92 -257 111 -259 120 -1 9
48 37 124 69 68 30 238 107 340 155 36 17 82 37 103 46 35 14 37 17 37 61 0
43 -1 46 -22 40 -13 -4 -39 -15 -58 -25 -39 -19 -94 -45 -190 -88 -93 -42
-147 -66 -303 -138 -75 -35 -147 -64 -158 -64 -11 0 -39 10 -62 21 -133 67
-166 139 -112 245 23 45 24 50 8 62 -33 24 -61 15 -84 -30z"/>
<path d="M2210 5340 c-14 -4 -48 -8 -77 -9 -98 -2 -360 -40 -404 -59 -50 -22
-101 -70 -124 -117 -23 -49 -21 -215 4 -285 24 -67 64 -141 90 -164 18 -16 20
-16 47 7 l27 24 -32 45 c-36 50 -81 162 -88 219 -6 47 33 126 83 167 26 22 51
32 91 37 30 4 56 5 58 3 1 -2 8 -46 14 -98 27 -239 46 -299 114 -354 34 -27
45 -30 110 -31 86 0 128 21 173 87 27 41 29 49 29 148 0 124 -18 172 -90 245
-48 48 -47 52 15 57 33 3 35 5 38 46 3 40 2 42 -25 41 -15 -1 -39 -5 -53 -9z
m-64 -139 c53 -39 69 -58 93 -114 14 -32 21 -70 21 -112 0 -56 -4 -68 -33
-106 -39 -52 -87 -68 -147 -50 -72 22 -97 91 -117 324 -7 85 -5 87 75 87 60 0
74 -4 108 -29z"/>
<path d="M8690 5021 c-141 -47 -227 -146 -260 -302 -12 -55 -11 -82 8 -164 34
-154 189 -265 368 -265 162 0 304 108 345 261 51 192 -20 358 -188 441 -58 28
-78 33 -157 35 -50 1 -102 -1 -116 -6z m246 -118 c103 -58 148 -131 147 -243
-1 -90 -23 -147 -80 -201 -64 -61 -97 -74 -193 -74 -72 1 -94 5 -142 29 -109
52 -164 135 -162 246 3 132 89 247 203 271 65 14 177 0 227 -28z"/>
<path d="M2304 4669 c-15 -16 -16 -23 -6 -37 34 -47 54 -106 49 -146 -8 -57
-45 -85 -159 -120 -51 -16 -97 -33 -102 -37 -6 -5 -18 -9 -28 -9 -10 0 -64
-16 -120 -35 -100 -34 -118 -35 -118 -12 0 30 -53 176 -66 181 -15 6 -64 -9
-64 -20 0 -3 6 -20 14 -37 14 -32 33 -99 42 -147 5 -23 0 -27 -53 -43 -86 -26
-86 -27 -73 -76 6 -22 12 -41 13 -41 2 0 27 9 57 19 91 32 89 32 113 -29 23
-56 45 -71 77 -51 12 8 13 17 3 53 -6 24 -15 51 -18 60 -8 19 39 48 77 48 13
0 32 6 43 14 11 7 39 17 62 21 24 4 45 11 49 16 3 5 13 9 23 9 20 0 145 39
201 63 80 35 129 122 114 205 -13 76 -69 172 -99 172 -7 0 -20 -9 -31 -21z"/>
<path d="M8366 4193 c-47 -13 -68 -26 -111 -68 -101 -102 -139 -234 -96 -342
l20 -52 -32 11 c-18 6 -41 17 -52 25 -11 7 -23 13 -27 13 -10 0 -40 -59 -36
-71 2 -6 63 -41 135 -77 73 -37 214 -109 315 -160 l183 -93 23 26 c12 14 22
32 22 40 0 7 -72 50 -162 96 -194 98 -228 118 -273 167 -77 80 -74 212 5 318
30 40 50 55 86 68 26 9 57 16 69 16 25 0 110 -26 140 -42 80 -44 347 -178 355
-178 10 0 40 51 40 68 0 5 -33 26 -72 47 -278 141 -350 175 -394 185 -27 6
-56 12 -64 14 -8 2 -41 -3 -74 -11z"/>
<path d="M2362 4151 c-66 -25 -98 -61 -106 -121 -7 -54 7 -154 30 -209 8 -18
14 -42 14 -53 0 -11 7 -35 16 -54 18 -37 14 -63 -15 -111 -22 -36 -67 -50
-121 -38 -69 15 -150 152 -159 270 -6 75 -15 84 -67 71 -30 -8 -31 -34 -5
-131 25 -93 53 -153 90 -194 17 -19 31 -37 31 -41 0 -16 86 -60 128 -66 70 -9
123 9 167 58 l38 41 -6 96 c-4 72 -13 117 -36 181 -41 115 -41 150 4 195 40
40 79 46 123 18 32 -20 72 -59 72 -70 0 -5 8 -20 17 -33 31 -43 54 -122 60
-203 l6 -78 41 3 41 3 -1 62 c-2 159 -114 353 -232 404 -52 22 -73 22 -130 0z"/>
<path d="M2894 3345 c-38 -17 -91 -76 -100 -111 -4 -14 -4 -44 -2 -68 5 -40
22 -73 124 -236 52 -83 62 -124 40 -165 -10 -18 -33 -41 -51 -51 -55 -29 -104
-7 -197 88 -43 43 -78 85 -78 94 0 8 -7 29 -16 45 -13 25 -20 30 -47 27 -29
-3 -32 -6 -31 -33 1 -16 19 -59 40 -95 102 -175 268 -260 384 -198 119 64 132
184 34 315 -13 17 -24 35 -24 39 0 3 -15 27 -33 53 -62 86 -71 143 -31 190 35
42 81 49 137 21 81 -41 187 -168 201 -242 10 -56 27 -73 62 -61 26 9 29 14 27
47 -7 105 -201 336 -283 336 -16 0 -32 5 -35 10 -9 14 -84 11 -121 -5z"/>
<path d="M7652 3269 c-13 -16 -22 -33 -20 -37 2 -4 75 -75 163 -157 88 -83
232 -220 320 -306 179 -175 247 -239 256 -239 3 0 18 13 33 29 l28 29 -169
164 c-158 155 -256 248 -468 448 -49 47 -91 88 -93 93 -7 15 -28 5 -50 -24z"/>
<path d="M7416 3049 c-15 -12 -26 -27 -24 -35 3 -12 102 -132 263 -318 39 -45
96 -114 128 -153 32 -40 63 -73 70 -73 7 1 25 11 41 24 25 21 27 26 15 39 -8
9 -25 30 -39 48 -25 34 -149 179 -160 189 -3 3 -27 32 -54 64 -80 99 -199 236
-207 236 -3 0 -18 -10 -33 -21z"/>
<path d="M7178 2859 c-10 -5 -18 -19 -18 -31 0 -18 33 -83 49 -98 4 -3 13 -21
22 -40 15 -32 15 -39 -2 -100 -30 -112 -46 -154 -57 -158 -6 -2 -44 10 -84 26
-40 16 -118 46 -173 66 -55 21 -117 45 -137 53 -35 15 -39 14 -83 -7 -50 -24
-49 -38 3 -58 58 -22 165 -63 227 -87 231 -89 230 -88 219 -114 -3 -9 -12 -41
-19 -71 -8 -30 -27 -98 -43 -150 -35 -113 -44 -160 -33 -160 4 0 26 13 47 28
37 27 41 36 82 173 23 79 43 152 42 161 0 9 4 19 9 22 8 6 35 86 61 184 6 23
15 42 19 42 8 0 97 -143 163 -261 15 -27 40 -68 55 -91 15 -24 37 -63 50 -86
55 -103 87 -143 112 -140 13 2 30 12 37 23 12 19 0 43 -127 260 -132 225 -285
485 -343 583 -26 43 -45 51 -78 31z"/>
<path d="M3587 2834 c-4 -4 -7 -20 -7 -36 0 -21 5 -28 20 -28 28 0 90 -30 123
-59 22 -21 27 -33 27 -74 0 -44 -10 -65 -96 -210 -132 -222 -148 -246 -157
-247 -5 0 -45 23 -90 50 -45 28 -86 50 -92 50 -6 0 -19 -13 -28 -30 -20 -33
-20 -32 63 -77 19 -11 52 -29 72 -42 l37 -23 -29 -55 c-17 -31 -35 -62 -41
-69 -9 -11 9 -29 58 -58 8 -4 25 16 50 59 20 36 43 65 50 65 7 0 34 -14 60
-30 44 -28 49 -29 60 -13 24 32 16 63 -20 78 -52 22 -64 41 -46 74 9 14 67
112 129 216 112 186 114 191 114 252 1 53 -3 67 -29 105 -19 26 -51 54 -81 70
-52 27 -133 45 -147 32z"/>
<path d="M4119 2521 c-64 -20 -82 -44 -60 -80 8 -12 19 -13 80 -1 84 16 159 3
228 -37 54 -31 120 -105 128 -144 4 -16 11 -31 16 -34 11 -8 12 -105 0 -124
-11 -18 -23 -15 -216 54 -88 31 -178 63 -200 70 -36 13 -116 43 -156 59 -23
10 -51 -71 -53 -153 -1 -94 27 -171 88 -238 55 -60 100 -85 194 -109 54 -14
74 -14 126 -4 129 25 206 83 263 197 36 72 37 80 37 177 0 81 -4 110 -21 148
-24 53 -111 146 -161 172 -92 48 -221 68 -293 47z m-75 -348 c28 -9 60 -20 71
-24 52 -22 241 -89 250 -89 5 0 33 -10 62 -22 51 -21 52 -22 38 -47 -20 -39
-74 -90 -118 -112 -111 -57 -263 -13 -340 98 -29 41 -46 137 -33 187 8 31 5
30 70 9z"/>
<path d="M3079 2469 c-6 -13 -35 -50 -63 -84 -29 -33 -71 -86 -95 -118 l-43
-57 23 -20 c33 -26 44 -25 66 9 10 16 36 52 58 79 116 147 126 164 111 186
-19 29 -42 31 -57 5z"/>
<path d="M6274 2440 c-92 -32 -175 -96 -209 -161 -17 -32 -4 -49 35 -49 19 0
36 11 57 38 36 45 111 87 190 108 64 17 110 10 186 -28 65 -32 143 -128 120
-148 -10 -9 -89 -36 -128 -45 -36 -7 -252 -73 -280 -85 -11 -5 -36 -12 -55
-16 -70 -13 -110 -35 -110 -59 0 -12 6 -28 14 -34 7 -6 16 -25 20 -42 8 -41
108 -140 171 -169 72 -32 178 -33 263 -1 82 31 162 103 199 179 25 50 28 68
28 152 0 89 -3 100 -37 171 -44 91 -110 156 -193 187 -73 28 -196 29 -271 2z
m410 -386 c0 -59 -5 -79 -28 -118 -98 -168 -372 -172 -456 -6 -24 48 -25 60
-3 60 22 0 140 37 176 56 16 8 38 14 49 14 26 0 190 50 203 62 5 5 21 8 35 6
24 -3 25 -5 24 -74z"/>
<path d="M7995 2355 c-31 -30 -32 -65 -2 -93 28 -26 49 -28 82 -6 34 22 35 86
3 108 -32 22 -55 20 -83 -9z"/>
<path d="M4677 2353 c-4 -3 -7 -18 -7 -33 0 -26 2 -27 87 -39 47 -7 125 -15
172 -17 47 -3 100 -10 116 -14 17 -5 61 -11 98 -15 l68 -7 -6 -116 c-3 -65
-12 -155 -20 -202 -18 -112 -55 -462 -55 -521 0 -49 11 -59 67 -59 19 0 22 7
27 68 4 37 13 119 21 182 9 63 16 140 16 170 0 30 4 80 9 110 5 30 18 138 30
240 18 165 18 186 5 196 -16 12 -58 18 -255 34 -63 6 -140 14 -170 19 -65 11
-194 14 -203 4z"/>
<path d="M5793 2325 c-31 -22 -31 -74 0 -103 31 -29 56 -28 91 4 23 22 27 32
22 58 -8 39 -15 46 -57 52 -22 3 -42 0 -56 -11z"/>
</g>
</svg>
