<?xml version="1.0" standalone="no"?>
<!DOCTYPE svg PUBLIC "-//W3C//DTD SVG 20010904//EN"
 "http://www.w3.org/TR/2001/REC-SVG-20010904/DTD/svg10.dtd">
<svg version="1.0" xmlns="http://www.w3.org/2000/svg"
 width="800.000000pt" height="800.000000pt" viewBox="0 0 800.000000 800.000000"
 preserveAspectRatio="xMidYMid meet">

<g transform="translate(0.000000,800.000000) scale(0.100000,-0.100000)"
fill="#000000" stroke="none">
<path d="M4117 7471 c-38 -10 -94 -35 -125 -54 -86 -53 -125 -70 -268 -120
-225 -80 -226 -80 -429 -62 -191 16 -577 19 -835 5 -282 -15 -548 -65 -671
-126 -77 -38 -208 -121 -227 -143 -24 -29 -140 -275 -157 -334 -28 -98 -73
-184 -125 -242 -53 -59 -139 -169 -206 -265 -22 -32 -69 -90 -103 -129 -84
-94 -125 -165 -166 -281 -62 -179 -66 -220 -62 -591 3 -320 4 -339 30 -453 51
-225 68 -420 47 -550 -29 -186 -40 -298 -42 -452 -1 -93 2 -176 6 -183 5 -7
12 -88 16 -179 7 -149 11 -174 35 -232 15 -36 34 -74 41 -85 7 -11 24 -56 39
-100 68 -199 120 -286 273 -453 42 -46 84 -94 92 -106 43 -64 84 -101 300
-264 41 -31 94 -73 117 -92 24 -21 83 -52 140 -75 72 -28 119 -56 178 -102 45
-36 132 -89 200 -123 66 -33 158 -80 205 -105 47 -25 123 -57 170 -71 47 -14
159 -48 250 -76 228 -70 333 -92 560 -113 112 -11 182 -25 270 -55 175 -60
237 -70 490 -76 129 -2 276 -9 325 -14 233 -25 373 -6 502 65 37 21 118 63
178 93 183 89 359 191 443 256 44 33 136 104 204 156 111 86 332 299 443 429
22 25 81 88 132 140 89 90 97 101 182 270 49 98 101 206 116 242 15 35 42 96
61 136 19 40 34 75 34 79 0 4 13 34 29 68 16 33 43 92 60 129 17 38 60 118 97
178 191 317 257 522 248 769 -5 152 -13 209 -40 310 -48 177 -93 290 -185 460
-34 63 -86 165 -115 225 -178 368 -260 504 -498 831 -49 67 -99 152 -130 219
-28 61 -65 133 -82 160 -53 85 -150 182 -228 227 -39 23 -102 60 -141 83 -38
24 -116 68 -173 99 -109 61 -174 122 -476 447 -128 139 -156 158 -306 209
l-95 33 -280 4 c-251 3 -287 1 -348 -16z m-427 -1666 c17 -9 30 -19 30 -23 0
-4 22 -15 49 -25 36 -12 80 -17 169 -17 134 0 199 15 243 56 32 31 64 30 123
-1 26 -14 53 -25 61 -25 15 0 68 -21 125 -50 19 -9 46 -20 60 -23 14 -4 46
-26 71 -50 37 -35 51 -59 72 -124 15 -44 27 -90 27 -102 0 -12 7 -36 16 -53
22 -43 73 -227 74 -269 0 -22 -37 -35 -135 -47 -129 -18 -245 -39 -253 -46 -4
-5 -5 -193 -3 -420 l3 -413 -23 -6 c-13 -4 -222 -7 -464 -7 -330 0 -444 3
-453 12 -9 9 -12 117 -12 426 l0 414 -22 -5 c-12 -4 -27 -2 -34 3 -10 9 -161
39 -277 55 -62 8 -73 30 -53 100 8 28 20 70 26 95 36 133 55 195 100 315 12
33 54 85 68 85 5 0 19 9 32 20 13 11 32 20 42 20 10 0 36 9 56 19 63 33 173
83 201 91 39 12 49 11 81 -5z m1620 -2030 c10 -11 11 -43 7 -122 -7 -137 -5
-136 -152 -131 l-110 3 -7 -55 c-3 -30 -6 -77 -7 -104 l-1 -48 63 6 c35 4 68
2 77 -3 17 -11 27 -147 12 -169 -6 -8 -35 -14 -76 -16 -45 -2 -71 -8 -77 -17
-5 -8 -9 -44 -9 -81 l0 -68 63 0 c34 0 91 5 125 10 71 10 89 6 97 -19 9 -30
-12 -193 -26 -203 -8 -5 -43 -6 -79 -2 -36 3 -114 10 -175 15 -60 5 -141 14
-179 22 -92 17 -94 24 -57 186 21 91 32 170 38 286 8 142 7 178 -13 320 -20
145 -21 162 -7 177 13 15 38 18 162 20 80 2 185 4 232 6 68 2 88 0 99 -13z
m281 -11 c9 -11 9 -77 0 -292 -6 -152 -14 -319 -17 -370 l-6 -93 38 3 c36 3
39 5 39 33 -2 129 -17 492 -21 513 -2 15 -1 33 4 40 9 13 160 42 220 42 20 0
35 -6 38 -15 4 -8 -4 -84 -16 -168 -20 -137 -27 -318 -15 -382 2 -11 4 -28 4
-37 1 -28 86 -24 156 8 32 14 70 24 84 22 25 -3 26 -6 29 -78 5 -108 -5 -159
-31 -169 -12 -4 -52 -2 -91 6 -98 19 -176 19 -351 0 -217 -24 -275 -25 -286
-5 -6 11 -15 860 -10 945 1 16 20 18 126 15 66 -2 97 -8 106 -18z m-2666 1
c17 -2 38 -3 47 -4 27 -2 37 -32 44 -124 9 -111 7 -112 -161 -103 l-122 7 -6
-77 c-4 -42 -7 -95 -7 -117 l0 -40 65 5 c42 4 68 2 74 -6 5 -6 13 -39 17 -74
10 -95 -17 -112 -111 -72 -26 11 -49 20 -52 20 -6 0 5 -203 13 -236 5 -19 15
-22 96 -28 153 -10 427 -6 401 6 -19 9 -23 20 -24 57 -1 75 -7 114 -18 120 -5
4 -30 5 -55 3 -44 -4 -46 -5 -51 -40 -15 -94 -17 -97 -66 -96 -24 1 -61 9 -82
17 -49 21 -48 44 4 127 57 90 88 231 97 443 6 134 10 161 24 171 10 7 54 21
97 30 115 25 115 26 135 -136 34 -261 65 -423 100 -525 51 -145 50 -148 -34
-169 -34 -9 -39 -12 -18 -13 77 -3 90 -26 64 -113 -24 -78 -32 -88 -74 -88
-59 0 -804 77 -834 86 -26 8 -23 41 18 269 l35 198 -16 156 c-8 86 -18 181
-21 211 -3 30 -7 67 -10 82 -3 15 0 37 6 48 12 22 14 22 203 15 106 -4 206 -9
222 -10z m1355 5 c13 -7 20 -26 25 -67 3 -32 8 -74 10 -93 2 -19 7 -71 10
-116 l7 -80 29 4 c29 4 104 -35 157 -82 l22 -19 0 141 c0 77 4 152 10 166 11
30 34 33 124 14 47 -9 59 -16 67 -36 7 -18 3 -97 -11 -252 l-21 -226 21 -94
c28 -130 27 -155 -7 -168 -70 -26 -159 -52 -180 -52 -28 0 -35 15 -63 127 -11
45 -25 95 -31 110 l-11 28 -19 -38 c-11 -20 -25 -73 -31 -118 -6 -45 -18 -87
-25 -95 -21 -20 -216 -20 -233 1 -7 9 -27 186 -53 466 l-41 452 23 18 c19 15
40 19 113 19 49 0 98 -4 108 -10z m-2304 -22 c15 -15 16 -27 7 -115 -19 -178
0 -422 32 -416 6 1 15 38 20 82 13 100 19 108 81 91 67 -19 100 -51 119 -116
9 -30 20 -52 25 -49 14 8 12 172 -2 273 -14 107 -5 132 49 132 56 0 111 -18
118 -39 3 -10 3 -33 1 -52 -3 -19 -7 -99 -11 -179 -3 -80 -8 -186 -11 -236 -4
-58 -2 -111 6 -146 20 -91 14 -101 -81 -128 -54 -16 -86 -20 -96 -14 -8 5 -35
62 -61 126 -26 67 -49 113 -53 105 -4 -6 -19 -57 -33 -111 -15 -55 -31 -105
-37 -112 -14 -17 -187 -30 -202 -15 -9 9 -11 59 -9 169 5 196 -27 507 -64 625
-24 79 -30 128 -16 141 4 4 51 6 104 4 75 -2 101 -7 114 -20z m1842 -2 c57
-29 89 -62 136 -141 43 -72 47 -128 16 -228 -16 -52 -30 -73 -70 -111 -27 -25
-61 -51 -75 -58 -14 -6 -25 -16 -25 -23 0 -6 47 -90 105 -187 58 -97 105 -185
105 -194 0 -10 -14 -33 -32 -51 -29 -30 -37 -33 -90 -33 l-59 0 -57 117 -57
117 -5 -70 c-3 -38 -9 -75 -14 -82 -5 -8 -35 -12 -90 -12 -87 0 -141 12 -149
35 -3 7 3 89 14 181 23 198 26 325 11 449 -6 50 -13 115 -16 145 -3 30 -10 70
-15 88 -10 34 -5 62 13 74 6 4 78 8 159 8 136 0 151 -2 195 -24z"/>
<path d="M3456 5666 c-164 -70 -170 -74 -186 -112 -30 -68 -92 -257 -100 -304
-5 -25 -13 -57 -19 -72 -9 -24 -7 -30 16 -48 14 -11 29 -20 32 -20 16 0 178
-21 198 -25 19 -4 27 3 47 43 30 59 50 79 63 60 4 -7 10 -225 13 -485 3 -259
9 -475 13 -480 5 -4 186 -8 402 -8 310 0 397 3 407 13 10 10 14 112 16 477 2
406 5 465 18 476 13 11 19 9 36 -11 10 -14 26 -40 34 -58 12 -28 19 -33 37
-28 13 3 62 10 110 15 81 9 114 19 145 44 10 8 10 13 -1 26 -8 9 -19 39 -25
66 -6 28 -17 68 -26 90 -8 22 -15 52 -16 66 0 15 -7 32 -15 39 -8 7 -15 27
-15 44 0 17 -13 55 -28 85 -23 43 -38 58 -78 77 -27 13 -54 24 -60 24 -6 0
-17 6 -23 14 -7 8 -27 17 -45 20 -19 4 -47 13 -62 21 -16 8 -48 17 -71 21 -36
5 -44 4 -49 -12 -21 -67 -99 -156 -165 -189 -64 -33 -170 -35 -231 -4 -55 28
-122 99 -150 159 -13 27 -30 49 -38 49 -8 0 -91 -33 -184 -73z"/>
<path d="M3753 5682 c-7 -18 72 -90 107 -98 14 -3 37 -10 51 -15 46 -18 120
10 182 69 20 20 37 40 37 44 0 11 -60 10 -117 -2 -35 -7 -76 -7 -151 3 -90 12
-105 12 -109 -1z"/>
<path d="M3131 3291 c-13 -40 -25 -80 -28 -87 -4 -11 6 -14 41 -14 54 0 56 7
27 110 l-18 65 -22 -74z"/>
<path d="M3684 3559 c3 -17 6 -74 6 -126 0 -85 2 -94 18 -89 9 3 35 10 58 15
32 9 44 18 57 46 27 57 22 108 -14 150 -28 31 -36 35 -81 35 l-50 0 6 -31z"/>
</g>
</svg>
